PathFileType	4	(X/Y/Z)	E:\Marcel_BSc\Ayumi_22_01_2025\22-01-2025\sumo_dl_3.trc
DataRate	CameraRate	NumFrames	NumMarkers	Units	OrigDataRate	OrigDataStartFrame	OrigNumFrames
200.0	200.0	4	47	mm	200.0	1	2336	
Frame#	Time	FHD			LBHD			RBHD			RBAR			LBAR			RSACR			LSACR			USACR			C7			CLAV			T10			RSHO			LSHO			LTHI1			LTHI3			LTHI2			LTIB1			LTIB2			LTIB3			LMMAL			LLMAL			LHEE			LMT1			LMT5			LMT3			RTHI1			RTHI2			RTHI3			RTIB1			RTIB3			RTIB2			RLMAL			RMMAL			RHEE			RMT5			RMT1			RMT3			LDUPA			LMUPA			LUUPA			LRAD			RUL			RUFIN			RRAD			RMUPA			RDUPA			RUUPA			
		X1	Y1	Z1	X2	Y2	Z2	X3	Y3	Z3	X4	Y4	Z4	X5	Y5	Z5	X6	Y6	Z6	X7	Y7	Z7	X8	Y8	Z8	X9	Y9	Z9	X10	Y10	Z10	X11	Y11	Z11	X12	Y12	Z12	X13	Y13	Z13	X14	Y14	Z14	X15	Y15	Z15	X16	Y16	Z16	X17	Y17	Z17	X18	Y18	Z18	X19	Y19	Z19	X20	Y20	Z20	X21	Y21	Z21	X22	Y22	Z22	X23	Y23	Z23	X24	Y24	Z24	X25	Y25	Z25	X26	Y26	Z26	X27	Y27	Z27	X28	Y28	Z28	X29	Y29	Z29	X30	Y30	Z30	X31	Y31	Z31	X32	Y32	Z32	X33	Y33	Z33	X34	Y34	Z34	X35	Y35	Z35	X36	Y36	Z36	X37	Y37	Z37	X38	Y38	Z38	X39	Y39	Z39	X40	Y40	Z40	X41	Y41	Z41	X42	Y42	Z42	X43	Y43	Z43	X44	Y44	Z44	X45	Y45	Z45	X46	Y46	Z46	X47	Y47	Z47	
1	-0.005	149.62602	1535.0873	-986.5838	165.48477	1517.2678	-926.35815	189.11688	1505.761	-1056.9941	250.17056	236.64621	-2082.3708	256.383	249.8773	137.7943	377.58582	883.68652	-1029.5083	381.20184	882.00934	-958.1073	372.11871	893.62817	-992.28284	339.73276	1325.9608	-979.23511	195.94426	1264.778	-992.18311	366.24753	1046.5377	-990.76233	272.00809	1340.5992	-1122.7039	256.63669	1333.3344	-842.78528	332.11411	578.32568	-739.3764	343.332	514.32483	-733.21759	300.04276	526.48724	-711.82068	330.19571	243.33519	-590.47321	369.22507	225.17172	-617.05267	342.16663	181.15773	-577.82355	282.33405	67.941452	-592.97864	337.03326	72.484642	-542.28748	345.52567	30.63019	-590.77124	183.01385	44.341663	-481.88782				201.65038	42.229832	-452.60608	336.35788	576.29938	-1232.8282	305.55499	525.97253	-1263.4395	348.61896	512.50488	-1239.9193	345.23056	275.93463	-1366.8699	356.03064	211.60706	-1378.1819	383.16211	256.90015	-1337.8983	353.05511	71.648262	-1424.8818	281.38013	69.461121	-1393.6373	354.56265	28.434095	-1377.2653	266.85129	25.517485	-1547.355	209.37187	36.436886	-1511.8376	230.99142	33.599079	-1534.537	338.22223	1256.9088	-656.69305	308.76059	1297.2194	-658.33539	318.50174	1302.559	-719.53223	268.996	1276.4041	-326.9946	337.00293	1300.5526	-1624.4402	284.05463	1330.839	-1697.8011	279.24878	1321.1396	-1627.0721	345.44354	1303.3392	-1228.8969	348.57727	1298.0497	-1289.873	363.60144	1258.0034	-1223.3048
2	0	149.53848	1535.0182	-986.65491	165.38672	1517.2578	-926.3913	189.02997	1505.7631	-1057.0305	250.16498	236.64473	-2082.3928	256.38168	249.87437	137.79329	377.56525	883.68713	-1029.5204	381.19305	882.02051	-958.10168	372.15018	893.61487	-992.29846	339.69067	1325.9548	-979.24835	195.90182	1264.7528	-992.20758	366.23508	1046.5316	-990.79474	271.95084	1340.5891	-1122.7168	256.54056	1333.3188	-842.8147	332.15985	578.32172	-739.35754	343.35678	514.33453	-733.21655	300.07526	526.49805	-711.80823	330.19025	243.36261	-590.46301	369.23578	225.18407	-617.04663	342.19354	181.1429	-577.80988	282.36319	67.939011	-592.9566	337.02643	72.480186	-542.28583	345.54205	30.621449	-590.77136	183.01801	44.325443	-481.89026				201.66011	42.24184	-452.6011	336.36694	576.29846	-1232.8184	305.55505	525.94434	-1263.4117	348.63596	512.4787	-1239.9091	345.23383	275.94449	-1366.8595	356.07059	211.60132	-1378.1477	382.39532	257.19025	-1337.7693	353.03726	71.633919	-1424.8953	281.36789	69.468231	-1393.6411	354.55969	28.432875	-1377.261	266.85919	25.573914	-1547.3761	209.37524	36.433502	-1511.8372	230.97046	33.596104	-1534.5426	338.13702	1256.864	-656.70465	308.64841	1297.1532	-658.34576	318.43143	1302.5199	-719.53308	268.83594	1276.2205	-327.02094	336.96411	1300.5247	-1624.4596	284.0112	1330.7922	-1697.8286	279.22336	1321.0898	-1627.0874	344.72845	1303.5695	-1229.0486	348.52536	1298.0779	-1289.8959	363.59213	1258.0511	-1223.3123
3	0.005	149.4635	1534.9563	-986.71936	165.26454	1517.2288	-926.45941	188.96638	1505.73	-1057.0778	250.17598	236.65187	-2082.3796	256.38025	249.87077	137.79495	377.56531	883.68713	-1029.5244	381.20862	882.00342	-958.11249	372.12231	893.62195	-992.30432	339.64862	1325.9456	-979.26154	195.86023	1264.7324	-992.24115	366.20264	1046.5402	-990.80951	271.93378	1340.5559	-1122.7406	256.51782	1333.3068	-842.81476	332.16486	578.34625	-739.35706	343.37805	514.31964	-733.21606	300.10477	526.49512	-711.79999	330.18451	243.37276	-590.44971	369.2081	225.17352	-617.01764	342.16357	181.13123	-577.8067	282.36978	67.951363	-592.96625	337.03842	72.486237	-542.28363	345.5397	30.620575	-590.75549	183.02339	44.328281	-481.90259				201.64793	42.244225	-452.60898	336.35922	576.29932	-1232.7981	305.5863	525.91101	-1263.387	348.61325	512.48846	-1239.9071	345.35114	275.36206	-1366.5328	356.04913	211.60033	-1378.1437	382.40482	257.1936	-1337.7405	353.06439	71.643402	-1424.8766	281.36374	69.45108	-1393.6611	354.56195	28.441774	-1377.2776	266.85016	25.516687	-1547.3455	209.38708	36.426083	-1511.8281	230.97479	33.590023	-1534.5463	338.04156	1256.8292	-656.71051	308.55365	1297.0913	-658.34497	318.35913	1302.5304	-719.51971	268.45709	1276.47	-327.05881	336.95178	1300.5306	-1624.4618	283.98306	1330.7491	-1697.859	279.17972	1321.0565	-1627.1093	344.67929	1303.6056	-1229.0704	348.47238	1298.1006	-1289.9208	363.58746	1258.0791	-1223.3494
4	0.01	149.38112	1534.9279	-986.74994	165.15237	1517.2052	-926.50592	188.90871	1505.7023	-1057.1045	250.17804	236.63271	-2082.354	256.38004	249.86877	137.79402	377.55386	883.67816	-1029.5306	381.20981	882.02393	-958.10846	372.11215	893.62927	-992.29773	339.60355	1325.9447	-979.28021	195.81837	1264.7156	-992.26794	366.19531	1046.5477	-990.81799	271.87704	1340.5509	-1122.7687	256.43805	1333.2694	-842.84393	332.16937	578.3465	-739.34912	343.40231	514.32953	-733.20508	300.13263	526.50226	-711.78741	330.15991	243.37234	-590.45276	369.1936	225.19246	-617.0011	342.20868	181.08755	-577.77075	282.36151	67.939514	-592.96973	337.03485	72.479202	-542.29791	345.53714	30.624727	-590.76013	183.02881	44.322445	-481.89609				201.66129	42.221169	-452.60291	336.35339	576.25812	-1232.8008	305.57501	525.85736	-1263.3864	348.62341	512.46747	-1239.8857	345.38168	275.36948	-1366.4962	356.06363	211.61096	-1378.127	382.41718	257.18063	-1337.7224	353.05008	71.635986	-1424.8781	281.36798	69.453293	-1393.6182	354.56757	28.435814	-1377.2667	266.85645	25.563387	-1547.3765	209.38153	36.423031	-1511.8363	230.98761	33.587399	-1534.5437	337.94482	1256.7744	-656.7417	308.45132	1297.0525	-658.34589	318.2648	1302.4713	-719.5343	268.29391	1276.2914	-327.06885	336.91544	1300.4751	-1624.5005	283.97662	1330.6854	-1697.8953	279.14841	1321.0076	-1627.1447	345.30624	1303.4509	-1228.9708	348.4274	1298.1235	-1289.9414	363.59091	1258.1094	-1223.3578
